<svg xmlns="http://www.w3.org/2000/svg" width="99.38" height="99.38" viewBox="0 0 99.38 99.38"><g transform="translate(-22.81 -21.81)"><g transform="translate(22.81 21.81)"><path d="M0,0H99.38V99.38H0Z" fill="none"/><path d="M15.77,58.764,7.99,51h7.78Zm59.007,0L82.556,51h-7.78Z" transform="translate(4.417 28.193)" fill="#a3313a"/><path d="M55.417,17.417H43.01V5.01Z" transform="translate(23.776 2.77)" fill="#b2b2b2"/><path d="M59.584,5H15.469A2.469,2.469,0,0,0,13,7.469V86.662a2.484,2.484,0,0,0,2.469,2.484H69.538a2.484,2.484,0,0,0,2.469-2.562V17.422H59.584Z" transform="translate(7.187 2.764)" fill="#f1f1f1"/><path d="M9.553,33H80.982a1.553,1.553,0,0,1,1.553,1.553v26.4H8v-26.4A1.553,1.553,0,0,1,9.553,33Z" transform="translate(4.422 18.243)" fill="#c84d52"/><path d="M24.776,46.07v4.457H21.67v-12.7h4.969a4.8,4.8,0,0,1,3.447,1.134,3.96,3.96,0,0,1,1.2,3.106,4.239,4.239,0,0,1-.528,2.1,3.711,3.711,0,0,1-1.553,1.46,5.45,5.45,0,0,1-2.531.528Zm3.416-4.084q0-1.677-1.863-1.677H24.776v3.307h1.553Q28.192,43.616,28.192,41.986ZM43.44,47.421a5.637,5.637,0,0,1-2.3,2.252,7.3,7.3,0,0,1-3.525.807h-4.8V37.824h4.8a7.376,7.376,0,0,1,3.525.792,5.5,5.5,0,0,1,2.3,2.236,6.677,6.677,0,0,1,.792,3.307A6.77,6.77,0,0,1,43.44,47.421Zm-3.307-.637a4.1,4.1,0,0,0,0-5.357,3.882,3.882,0,0,0-2.8-.947H35.894v7.252h1.444a3.882,3.882,0,0,0,2.8-.9Zm14.131-8.96v2.453H49.046v2.78h4.022v2.329H49.046v5.14H45.94v-12.7Z" transform="translate(11.979 20.903)" fill="#fff"/></g><g transform="translate(54.59 39.388)"><path d="M34.821,7.255V27.547A2.255,2.255,0,0,1,32.567,29.8H3.255a2.255,2.255,0,0,1-1.736-.812,2.142,2.142,0,0,1-.248-.316A2.165,2.165,0,0,1,1,27.547V7.255A2.255,2.255,0,0,1,3.255,5H32.567A2.255,2.255,0,0,1,34.821,7.255Z" transform="translate(0)" fill="#45ace5"/><path d="M32.911,7.255V27.547A2.255,2.255,0,0,1,30.656,29.8H16V5H30.656A2.255,2.255,0,0,1,32.911,7.255Z" transform="translate(1.911)" fill="#3c96d1"/><path d="M33.226,27.172,22.956,9.562a1.127,1.127,0,0,0-1.939,0L10.487,27.6a1.127,1.127,0,0,0,.981,1.691H31.377a2.255,2.255,0,0,0,1.77-.857,1.127,1.127,0,0,0,.079-1.263Z" transform="translate(1.189 0.511)" fill="#3e5a72"/><path d="M14.917,23.643,9.855,14.962a1.131,1.131,0,0,0-1.95.011L1.287,26.349a1.127,1.127,0,0,0-.068.992,1.646,1.646,0,0,0,.282.473,2.255,2.255,0,0,0,1.736.789H17.893Z" transform="translate(0.017 1.199)" fill="#2a3d4f"/><circle cx="3.382" cy="3.382" r="3.382" transform="translate(5.25 7.785)" fill="#ffd766"/><path d="M12.168,19.586,9.485,14.963a1.127,1.127,0,0,0-1.95,0L4.288,20.533a1.127,1.127,0,0,0,.349,1.511,5.524,5.524,0,0,0,3.066.924,5.637,5.637,0,0,0,4.374-2.108A1.127,1.127,0,0,0,12.168,19.586Z" transform="translate(0.399 1.198)" fill="#1c2833"/><path d="M25.3,14.895,22.187,9.562a1.127,1.127,0,0,0-1.939,0l-3.72,6.37a1.127,1.127,0,0,0,.395,1.545,6.55,6.55,0,0,0,3.382.9,6.629,6.629,0,0,0,4.9-2.165,1.127,1.127,0,0,0,.09-1.319Z" transform="translate(1.958 0.511)" fill="#2a3d4f"/><path d="M11.152,10.852A3.382,3.382,0,0,1,7.77,14.234V7.47a3.382,3.382,0,0,1,3.382,3.382Z" transform="translate(0.862 0.315)" fill="#f2c861"/></g></g></svg>